<svg xmlns="http://www.w3.org/2000/svg" width="168.676" height="51.674" viewBox="0 0 168.676 51.674">
  <g id="Logo_option_2" data-name="Logo option 2" transform="translate(0.05 -1.5)">
    <g id="Group_404" data-name="Group 404" transform="translate(0 0)">
      <g id="Group_403" data-name="Group 403" transform="translate(0 8.224)">
        <path id="Path_249" data-name="Path 249" d="M2257.72,34.392h-.022l.117.208c.054.116.109.232.166.348a.31.31,0,0,0,.017.042l.079.157h.175l.46,0,.36.028-.011-.027c2.583.015,4.807.022,6.779.022,4.55,0,7.57-.037,9.231-.112h.009a.466.466,0,0,0,.255-.082l.012.06a4.246,4.246,0,0,0,.1.428l.03.1.016.01a.623.623,0,0,0,.64.462l.016.065.013-.066a1.126,1.126,0,0,0,.227-.032l.067-.015.053-.045c.025-.021.048-.042.069-.063.154,1.514.3,2.965.455,4.406.113,1.091.233,2.217.348,3.306.012.1.022.2.032.3.019.18.038.365.068.583l.005.029a.372.372,0,0,1,.011.056,1.27,1.27,0,0,0,.074.263.569.569,0,0,0,.219.312.762.762,0,0,0,.377.194l.1.066a1.368,1.368,0,0,1,.166-.039l-.012-.027a.845.845,0,0,0,.576-.482,1.1,1.1,0,0,0,.069-.214,3.081,3.081,0,0,0,.066-.4c0-.033.008-.066.012-.1l.2-1.742c.3-2.55.565-4.92.823-7.246.191-1.721.378-3.444.56-5.145.3,1.865.6,3.627.867,5.249v.006c.033.173.059.336.083.494a8.78,8.78,0,0,0,.193.978l.024.092.021.016c.054.161.18.343.584.423l.082.016.077-.03c.3-.116.437-.238.486-.426l.006,0,.025-.067a2.06,2.06,0,0,0,.088-.354c0-.026.009-.051.014-.076l0-.01.108-.668c.042-.264.094-.582.145-.889l.056-.339a1.765,1.765,0,0,0,1.055.868,3.848,3.848,0,0,0,.968.115c.194,0,.377-.011.554-.022s.325-.019.485-.019c.064,0,.123,0,.181,0h.022c.58-.012,2.445-.024,4.3-.035-3.988,8.685-14.77,14.624-15.329,14.927l-.149.081V51l.418-.22a49.3,49.3,0,0,0,10.446-7.714,31.251,31.251,0,0,0,5.519-6.983,17.4,17.4,0,0,0,2.408-8.529,9.669,9.669,0,0,0-3.315-7.424,11.113,11.113,0,0,0-7.691-2.858,10.359,10.359,0,0,0-5.142,1.183,7.926,7.926,0,0,0-3.088,3.222,7.841,7.841,0,0,0-3-3.22,9.817,9.817,0,0,0-5.059-1.185,11.113,11.113,0,0,0-7.692,2.858,9.666,9.666,0,0,0-3.315,7.424A16.567,16.567,0,0,0,2257.72,34.392Zm-.051-5.414a8.566,8.566,0,0,1,2.939-6.579,9.924,9.924,0,0,1,6.87-2.548,8.035,8.035,0,0,1,7.5,5.037l.258.554.259-.554c1.072-2.3,3.213-5.037,7.324-5.037a9.922,9.922,0,0,1,6.869,2.548,8.565,8.565,0,0,1,2.939,6.579,14.776,14.776,0,0,1-1.123,5.542c-1.962-.012-4.011-.025-4.637-.038-.171-.014-.352-.016-.491-.016h-.461a3.376,3.376,0,0,1-.952-.1,1.048,1.048,0,0,1-.537-.493l-.011-.03-.018-.027a1.311,1.311,0,0,1-.1-.261c-.022-.072-.045-.147-.072-.218l-.019-.048-.023-.027c0-.014-.011-.04-.016-.059a.791.791,0,0,0-.778-.65l-.138-.021-.1.1a1.458,1.458,0,0,0-.535,1.054c-.22-1.592-.442-3.172-.662-4.714-.156-1.106-.315-2.213-.47-3.291l-.008-.06c-.017-.119-.034-.243-.062-.395l-.006-.028a.467.467,0,0,1-.014-.056,1.028,1.028,0,0,0-.073-.234.842.842,0,0,0-.755-.527.652.652,0,0,0-.452.184l-.01.009a.752.752,0,0,0-.248.378l-.018.03-.011.044a4.823,4.823,0,0,0-.109.686c-.01.091-.019.176-.032.268v.008l-.2,1.739c-.3,2.6-.571,4.971-.823,7.245-.136,1.224-.275,2.5-.421,3.859-.211-1.67-.417-3.279-.614-4.8l0-.015c-.012-.067-.019-.131-.026-.2a2.325,2.325,0,0,0-.144-.652l-.018-.048-.016-.018a.614.614,0,0,0-.3-.3.455.455,0,0,0-.263-.079.778.778,0,0,0-.53.242.325.325,0,0,0-.041.064,1.011,1.011,0,0,0-.131.266l-.01.029-.006.017a3.976,3.976,0,0,0-.094.4l-.028.141a1.075,1.075,0,0,0-.578-.215l-.115-.013-.091.07c-.221.168-.3.241-.346.28l-.02.017c-.007.005-.034.018-.068.036-2.295.162-7.551.268-16.052.323A14.7,14.7,0,0,1,2257.669,28.979Z" transform="translate(-2256.168 -17.276)" fill="#fff" stroke="#fff" stroke-width="0.1"/>
      </g>
      <text id="InterCare" transform="translate(45.126 31)" fill="#fff" stroke="#fff" stroke-width="0.5" font-size="30" font-family="Roboto-Regular, Roboto"><tspan x="0" y="0">InterCare</tspan></text>
    </g>
    <text id="Healthcare_network" data-name="Healthcare network" transform="translate(47.147 49.674)" fill="#fff" stroke="#fff" stroke-width="0.5" font-size="12" font-family="Roboto-Regular, Roboto"><tspan x="0" y="0">Healthcare network</tspan></text>
  </g>
</svg>
